<?xml version="1.0" encoding="UTF-8" standalone="no"?>
<!-- Created with Inkscape (http://www.inkscape.org/) -->
<svg
   xmlns:dc="http://purl.org/dc/elements/1.1/"
   xmlns:cc="http://creativecommons.org/ns#"
   xmlns:rdf="http://www.w3.org/1999/02/22-rdf-syntax-ns#"
   xmlns:svg="http://www.w3.org/2000/svg"
   xmlns="http://www.w3.org/2000/svg"
   xmlns:sodipodi="http://sodipodi.sourceforge.net/DTD/sodipodi-0.dtd"
   xmlns:inkscape="http://www.inkscape.org/namespaces/inkscape"
   width="500"
   height="75.550003"
   id="svg2"
   sodipodi:version="0.32"
   inkscape:version="0.46"
   version="1.0"
   sodipodi:docname="Logo Linz AG.svg"
   inkscape:output_extension="org.inkscape.output.svg.inkscape">
  <defs
     id="defs4">
    <inkscape:perspective
       sodipodi:type="inkscape:persp3d"
       inkscape:vp_x="0 : 526.18109 : 1"
       inkscape:vp_y="0 : 1000 : 0"
       inkscape:vp_z="744.09448 : 526.18109 : 1"
       inkscape:persp3d-origin="372.04724 : 350.78739 : 1"
       id="perspective10" />
    <clipPath
       id="clipPath4374"
       clipPathUnits="userSpaceOnUse">
      <path
         id="path4376"
         clip-rule="evenodd"
         d="M 651.5303,329.5097 L 654.4412,330.9437 L 654.8247,330.1909 L 653.8476,329.7095 L 655.0169,327.4152 L 654.0593,326.9435 L 652.89,329.2381 L 651.9138,328.7571 L 651.5303,329.5097 z M 655.3828,329.4992 C 655.1294,329.9967 655.0736,330.4536 655.2139,330.8689 C 655.3548,331.2853 655.6768,331.6173 656.1799,331.8647 C 656.6958,332.119 657.1627,332.1785 657.5808,332.0436 C 657.9978,331.9092 658.3323,331.5963 658.582,331.1062 C 658.7634,330.7501 658.851,330.4276 658.8454,330.1398 C 658.8394,329.8518 658.7535,329.5879 658.5883,329.3476 C 658.4219,329.1066 658.1676,328.9025 657.8235,328.733 C 657.4742,328.5609 657.157,328.4731 656.8719,328.4691 C 656.587,328.4666 656.3134,328.5482 656.0498,328.7149 C 655.7871,328.8818 655.5645,329.1432 655.3828,329.4992 z M 656.3435,329.9672 C 656.5003,329.6591 656.6703,329.4669 656.8554,329.3895 C 657.0397,329.3127 657.233,329.3232 657.4329,329.4218 C 657.6384,329.523 657.7642,329.6676 657.8099,329.8544 C 657.8552,330.0418 657.792,330.306 657.6185,330.6467 C 657.472,330.9338 657.3061,331.1141 657.121,331.1889 C 656.9359,331.2629 656.7429,331.2502 656.5408,331.1507 C 656.3483,331.056 656.227,330.9129 656.1788,330.7204 C 656.1303,330.5288 656.1853,330.277 656.3435,329.9672 z M 659.8984,329.8198 L 658.3459,332.8668 L 659.9418,333.6531 C 660.2377,333.7988 660.477,333.8855 660.6584,333.9119 C 660.8404,333.9394 661.0136,333.9094 661.1788,333.8212 C 661.3432,333.7336 661.4748,333.5924 661.5734,333.3988 C 661.6599,333.2293 661.6973,333.0658 661.6868,332.907 C 661.6757,332.748 661.6253,332.5992 661.5366,332.4594 C 661.479,332.3707 661.3877,332.2752 661.2616,332.174 C 661.3948,332.1924 661.4969,332.1958 661.5686,332.1842 C 661.6159,332.1763 661.6945,332.1485 661.803,332.0997 C 661.9122,332.0507 661.9887,332.0101 662.0338,331.9764 L 662.9471,331.3213 L 661.8648,330.7884 L 660.8784,331.4679 C 660.7525,331.5557 660.6544,331.6059 660.585,331.617 C 660.4926,331.63 660.4019,331.6147 660.3146,331.5716 L 660.2301,331.5302 L 660.8602,330.2935 L 659.8984,329.8198 z M 659.9367,332.1062 L 660.3406,332.3052 C 660.384,332.3265 660.4617,332.3818 660.5731,332.4711 C 660.63,332.5153 660.6658,332.5728 660.6799,332.6437 C 660.6938,332.7143 660.6839,332.7831 660.6499,332.8498 C 660.5997,332.9484 660.5297,333.0079 660.4393,333.0292 C 660.3489,333.0513 660.2165,333.0187 660.0419,332.9328 L 659.6209,332.7256 L 659.9367,332.1062 z M 667.0774,333.356 L 664.4942,332.0836 C 664.3959,332.3492 664.3658,332.6292 664.4032,332.9243 C 664.4409,333.2191 664.5895,333.6188 664.8489,334.1228 C 665.0076,334.4309 665.0972,334.6506 665.1193,334.7807 C 665.1414,334.9111 665.1303,335.0194 665.0867,335.1053 C 665.0393,335.1983 664.9634,335.2603 664.8605,335.2921 C 664.7573,335.323 664.6521,335.3131 664.547,335.2609 C 664.4364,335.2068 664.3644,335.1285 664.329,335.0259 C 664.2941,334.9244 664.3083,334.7813 664.3715,334.597 L 663.4743,334.241 C 663.3867,334.4961 663.3541,334.7127 663.376,334.891 C 663.3981,335.069 663.4726,335.2343 663.601,335.3862 C 663.7283,335.5387 663.9375,335.6861 664.2283,335.8293 C 664.5308,335.9784 664.7842,336.0603 664.9872,336.0762 C 665.1901,336.0909 665.3761,336.0521 665.5436,335.9588 C 665.7123,335.8653 665.8407,335.7315 665.9297,335.5571 C 666.0244,335.3712 666.0592,335.1665 666.0349,334.9431 C 666.0105,334.7201 665.9039,334.4349 665.7154,334.0891 C 665.6014,333.8855 665.528,333.7464 665.4937,333.6701 C 665.4591,333.5944 665.4214,333.4986 665.3815,333.3841 L 666.7257,334.0463" />
    </clipPath>
    <clipPath
       id="clipPath4098"
       clipPathUnits="userSpaceOnUse">
      <path
         id="path4100"
         clip-rule="evenodd"
         d="M 310.0326,304.7204 L 325.0043,316.6985 L 378.6318,251.7701 L 363.5595,239.3572" />
    </clipPath>
    <clipPath
       id="clipPath3838"
       clipPathUnits="userSpaceOnUse">
      <path
         id="path3840"
         clip-rule="evenodd"
         d="M 445.2335,203.1676 L 499.86,230.046 C 500.1775,230.2021 500.6526,230.0406 500.8088,229.7231 L 505.7935,219.5923 C 505.9497,219.2749 505.7881,218.7998 505.4706,218.6436 L 450.8442,191.7652 C 450.5267,191.609 450.0516,191.7706 449.8954,192.0881 L 444.9107,202.2188 C 444.7545,202.5363 444.9161,203.0114 445.2335,203.1676" />
    </clipPath>
    <clipPath
       id="clipPath3758"
       clipPathUnits="userSpaceOnUse">
      <path
         id="path3760"
         clip-rule="evenodd"
         d="M 524.363,200.9837 L 567.8725,222.406 L 569.4143,219.2769 L 527.3385,198.8104" />
    </clipPath>
    <clipPath
       id="clipPath3572"
       clipPathUnits="userSpaceOnUse">
      <path
         id="path3574"
         clip-rule="evenodd"
         d="M 494.0504,321.2402 L 635.9131,321.2402 L 635.9131,294.3227 L 494.0504,294.3227" />
    </clipPath>
    <clipPath
       id="clipPath3542"
       clipPathUnits="userSpaceOnUse">
      <path
         id="path3544"
         clip-rule="evenodd"
         d="M 230.8079,150.66 L 212.4794,171.9213 L 212.4091,172.0032 L 212.4901,172.0732 L 234.2285,190.8119 L 234.3121,190.8839 L 234.3821,190.7997 L 252.4887,169.0951 L 252.5573,169.0132 L 252.4754,168.9437 L 230.959,150.6484 L 230.8776,150.5792" />
    </clipPath>
    <clipPath
       id="clipPath3530"
       clipPathUnits="userSpaceOnUse">
      <path
         id="path3532"
         clip-rule="evenodd"
         d="M 430.501,206.6632 L 450.396,171.0213 L 450.4482,170.9277 L 450.3546,170.8747 L 406.6169,146.2527 L 406.5239,146.2003 L 406.4706,146.2935 L 386.0325,182.1864 L 385.9787,182.2816 L 386.0742,182.334 L 430.3551,206.7052 L 430.4486,206.7571" />
    </clipPath>
    <clipPath
       id="clipPath3518"
       clipPathUnits="userSpaceOnUse">
      <path
         id="path3520"
         clip-rule="evenodd"
         d="M 386.5983,146.9021 L 450.2676,146.9021 L 450.2676,206.7814 L 386.5983,206.7814" />
    </clipPath>
    <clipPath
       id="clipPath3506"
       clipPathUnits="userSpaceOnUse">
      <path
         id="path3508"
         clip-rule="evenodd"
         d="M 233.4886,221.4198 L 268.412,254.4659 L 302.0641,218.5101 L 267.3924,185.5174" />
    </clipPath>
    <clipPath
       id="clipPath3472"
       clipPathUnits="userSpaceOnUse">
      <path
         id="path3474"
         clip-rule="evenodd"
         d="M 212.8861,151.062 L 252.0899,151.062 L 252.0899,190.2657 L 212.8861,190.2657" />
    </clipPath>
    <clipPath
       id="clipPath3036"
       clipPathUnits="userSpaceOnUse">
      <path
         id="path3038"
         clip-rule="evenodd"
         d="M 650.9619,330.7309 L 657.7537,334.0763 L 664.5458,337.4218 L 664.6212,337.4294 L 668.9373,336.2686 L 669.0546,336.2369 L 669.0095,336.1243 L 667.3711,332.0306 L 667.3187,331.9739 L 660.5266,328.6281 L 653.7345,325.2827 L 653.6526,325.2773 L 649.4944,326.6824 L 649.3876,326.7184 L 649.4278,326.8227 L 650.9086,330.6725" />
    </clipPath>
    <clipPath
       id="clipPath2720"
       clipPathUnits="userSpaceOnUse">
      <path
         id="path2722"
         clip-rule="evenodd"
         d="M 464.656,230.1729 L 467.5669,231.6067 L 467.9504,230.8538 L 466.9733,230.3728 L 468.1423,228.0781 L 467.1848,227.6065 L 466.0157,229.9011 L 465.0395,229.4201 L 464.656,230.1729 z M 468.5085,230.1622 C 468.2551,230.6597 468.199,231.1166 468.3396,231.5319 C 468.4805,231.9483 468.8025,232.2802 469.3054,232.528 C 469.8213,232.782 470.2884,232.8415 470.7062,232.7068 C 471.1232,232.5722 471.4577,232.2595 471.7077,231.7691 C 471.8891,231.4131 471.9767,231.0905 471.9708,230.8028 C 471.9648,230.5148 471.8792,230.2509 471.7137,230.0105 C 471.5476,229.7696 471.2933,229.5655 470.9492,229.396 C 470.5997,229.2239 470.2825,229.136 469.9973,229.1323 C 469.7127,229.1295 469.4389,229.2111 469.1755,229.3778 C 468.9125,229.5448 468.69,229.8061 468.5085,230.1622 z M 469.4689,230.6302 C 469.6257,230.3223 469.796,230.1299 469.9809,230.0525 C 470.1654,229.9757 470.3584,229.9864 470.5583,230.0848 C 470.7641,230.186 470.8899,230.3306 470.9356,230.5174 C 470.9809,230.7047 470.9174,230.9692 470.7439,231.3096 C 470.5977,231.5971 470.4318,231.7771 470.2465,231.8519 C 470.0616,231.9259 469.8686,231.9134 469.6665,231.8136 C 469.4737,231.719 469.3527,231.5758 469.3045,231.3833 C 469.256,231.1917 469.311,230.94 469.4689,230.6302 z M 473.0238,230.4828 L 471.4713,233.53 L 473.0675,234.3161 C 473.3634,234.4618 473.6024,234.5485 473.7841,234.5751 C 473.9658,234.6024 474.1393,234.5723 474.3043,234.4842 C 474.4689,234.3966 474.6005,234.2557 474.6991,234.0618 C 474.7856,233.8923 474.8227,233.7287 474.8125,233.57 C 474.8014,233.411 474.751,233.2621 474.6623,233.1224 C 474.6047,233.0337 474.5134,232.9381 474.387,232.8369 C 474.5203,232.8557 474.6223,232.8588 474.6943,232.8471 C 474.7416,232.8392 474.8199,232.8114 474.9284,232.763 C 475.0376,232.7136 475.1141,232.6731 475.1592,232.6394 L 476.0725,231.9843 L 474.9902,231.4514 L 474.0041,232.1308 C 473.8779,232.2187 473.7801,232.2692 473.7104,232.2799 C 473.618,232.293 473.5276,232.2777 473.4403,232.2346 L 473.3558,232.1932 L 473.9859,230.9564 L 473.0238,230.4828 z M 473.0621,232.7692 L 473.4663,232.9682 C 473.5094,232.9894 473.5871,233.0447 473.6985,233.134 C 473.7555,233.1782 473.7912,233.2358 473.8056,233.3066 C 473.8192,233.3772 473.8096,233.4461 473.7756,233.513 C 473.7251,233.6117 473.6551,233.6712 473.565,233.6924 C 473.4743,233.7143 473.3419,233.682 473.1673,233.5958 L 472.7466,233.3886 L 473.0621,232.7692 z M 476.4798,235.997 L 478.5242,237.0039 L 478.8683,236.3284 L 477.4836,235.6464 L 477.6423,235.1523 C 477.7155,235.2441 477.7931,235.3241 477.8756,235.3924 C 477.9584,235.4604 478.0449,235.5174 478.1364,235.5625 C 478.4468,235.7152 478.7456,235.747 479.0322,235.6574 C 479.3196,235.5684 479.5345,235.3839 479.677,235.1044 C 479.7774,234.9071 479.8239,234.6939 479.8168,234.4632 C 479.8097,234.2324 479.7397,234.0249 479.6059,233.8393 C 479.4721,233.6536 479.2623,233.4909 478.978,233.3509 C 478.7739,233.2502 478.5888,233.1831 478.4238,233.1488 C 478.2586,233.1153 478.1055,233.1111 477.9643,233.1363 C 477.8243,233.1615 477.6976,233.2063 477.5856,233.2704 C 477.4734,233.3347 477.36,233.428 477.2449,233.5496 L 478.0681,234.0723 C 478.1594,233.9459 478.2617,233.8659 478.3754,233.8322 C 478.4896,233.7996 478.6002,233.8089 478.707,233.8617 C 478.8269,233.9206 478.9029,234.0139 478.9361,234.142 C 478.9684,234.2699 478.9395,234.4224 478.849,234.5998 C 478.7563,234.7815 478.6495,234.8957 478.527,234.9411 C 478.4054,234.9867 478.2787,234.9765 478.1483,234.9125 C 478.0653,234.8714 477.9944,234.8118 477.9374,234.7339 C 477.8949,234.6758 477.8583,234.5919 477.8277,234.4819 L 477.0417,234.2245" />
    </clipPath>
    <inkscape:perspective
       id="perspective2410"
       inkscape:persp3d-origin="372.04724 : 350.78739 : 1"
       inkscape:vp_z="744.09448 : 526.18109 : 1"
       inkscape:vp_y="0 : 1000 : 0"
       inkscape:vp_x="0 : 526.18109 : 1"
       sodipodi:type="inkscape:persp3d" />
  </defs>
  <sodipodi:namedview
     id="base"
     pagecolor="#ffffff"
     bordercolor="#666666"
     borderopacity="1.0"
     inkscape:pageopacity="0.0"
     inkscape:pageshadow="2"
     inkscape:zoom="1.4"
     inkscape:cx="59.541022"
     inkscape:cy="63.320241"
     inkscape:document-units="px"
     inkscape:current-layer="layer1"
     showgrid="false"
     inkscape:window-width="1280"
     inkscape:window-height="750"
     inkscape:window-x="-8"
     inkscape:window-y="-8" />
  <metadata
     id="metadata7">
    <rdf:RDF>
      <cc:Work
         rdf:about="">
        <dc:format>image/svg+xml</dc:format>
        <dc:type
           rdf:resource="http://purl.org/dc/dcmitype/StillImage" />
      </cc:Work>
    </rdf:RDF>
  </metadata>
  <g
     inkscape:label="Ebene 1"
     inkscape:groupmode="layer"
     id="layer1"
     transform="translate(-145.9747,-355.47614)">
    <g
       id="g6393"
       transform="matrix(2.1451087,0,0,2.1451087,136.88626,-420.33654)">
      <path
         id="path3554"
         style="fill:#005194;fill-opacity:1;fill-rule:evenodd;stroke:none"
         d="M 203.80634,370.9493 L 203.80634,387.29855 L 225.81597,387.29855 L 225.81597,381.5513 L 214.29284,381.5513 L 214.29284,377.15542 L 232.66347,377.15542 L 232.66347,386.0473 C 232.66347,388.41605 232.14509,390.0258 231.11784,390.87693 C 230.08072,391.7358 228.09509,392.1613 225.16046,392.1613 L 204.26596,392.1613 C 201.32147,392.1613 199.33584,391.7358 198.29897,390.87693 C 197.27184,390.0258 196.75347,388.41605 196.75347,386.0473 L 196.75347,372.44242 C 196.75347,370.09005 197.27184,368.48855 198.29897,367.62105 C 199.33584,366.7618 201.32147,366.32817 204.26596,366.32817 L 225.16046,366.32817 C 228.05609,366.32817 230.04172,366.75367 231.08847,367.59592 C 231.93884,368.28717 232.44697,369.4303 232.60746,371.0248" />
      <path
         id="path3556"
         style="fill:#005194;fill-opacity:1;fill-rule:evenodd;stroke:none"
         d="M 118.19472,376.74117 L 124.87034,370.98367 L 105.77972,370.98367 L 105.77972,366.36255 L 136.23834,366.36255 L 136.23834,368.9318 L 126.88684,376.74117" />
      <path
         id="path3558"
         style="fill:#616163;fill-opacity:1;fill-rule:evenodd;stroke:none"
         d="M 112.36746,381.82767 L 112.44822,381.8198 L 121.19272,381.8198 L 114.70784,387.33255 L 136.23834,387.33255 L 136.23834,392.19567 L 103.65334,392.19567 L 103.65334,389.3848" />
      <path
         id="path3560"
         style="fill:#616163;fill-opacity:1;fill-rule:evenodd;stroke:none"
         d="M 89.661215,371.0538 L 89.661215,371.0538 L 67.74334,370.9493 L 67.742965,392.2233 L 60.76059,392.2233 L 60.76059,370.9493 C 60.76059,369.3368 61.323965,366.32817 67.74334,366.32817 L 89.68809,366.32817 C 95.600465,366.32817 96.67059,369.04305 96.67059,370.94892 L 96.67059,392.2233 L 89.68809,392.2233" />
      <path
         id="path3562"
         style="fill:#616163;fill-opacity:1;fill-rule:evenodd;stroke:none"
         d="M 43.470715,392.1613 L 43.470715,366.32817 L 50.342215,366.32817 L 50.342215,392.1613" />
      <path
         id="path3564"
         style="fill:#616163;fill-opacity:1;fill-rule:evenodd;stroke:none"
         d="M 8.89859,392.2233 L 8.89859,366.32817 L 16.02209,366.3823 L 16.02209,387.35267 L 37.928965,387.35267 L 37.928965,392.2233" />
      <path
         id="path3566"
         style="fill:#005194;fill-opacity:1;fill-rule:evenodd;stroke:none"
         d="M 170.92872,381.86017 L 173.81084,386.49842 L 180.52546,386.52255 L 184.09922,392.1613 L 191.87109,392.1613 L 174.80934,366.32817 L 168.14259,366.32817 L 151.31159,392.1613 L 158.20897,392.1613 L 171.23559,371.34118 L 177.65321,381.85142" />
    </g>
  </g>
</svg>
