<svg xmlns="http://www.w3.org/2000/svg" viewBox="3365 -7509 219 40"><defs><style>.cls-1{fill:rgba(255,255,255,0)}.cls-2{fill:#e00}</style></defs><g id="sbgag_logo" transform="translate(3066 -15247)"><path id="Rechteck_2673" data-name="Rechteck 2673" class="cls-1" transform="translate(299 7738)" d="M0 0h219v40H0z"/><g id="Logo" transform="translate(299.926 7739)"><g id="Gruppe_1127" data-name="Gruppe 1127" transform="translate(49.5 10.195)"><path id="Pfad_2343" data-name="Pfad 2343" d="M50.9 19.574c-2.528-.618-3.9-2.163-3.9-4.428 0-2.78 2.107-5.046 6.846-5.046a13.687 13.687 0 0 1 6.109 1.339L58.9 14.631a10.487 10.487 0 0 0-5.266-1.442c-2.212 0-3.054.618-3.054 1.648 0 .927.632 1.236 1.9 1.648l3.16.927c3.054.824 4.634 2.266 4.634 4.634 0 3.192-2.844 5.252-6.952 5.252a13.3 13.3 0 0 1-6-1.442l.843-3.3a10.206 10.206 0 0 0 5.266 1.545c2.107 0 3.265-.721 3.265-1.854 0-.927-.948-1.339-2.423-1.751z" transform="translate(-47 -9.894)"/><path id="Pfad_2344" data-name="Pfad 2344" d="M68.746 10.3h4.108l6.636 16.786h-3.582l-1.264-3.4H66.85l-1.369 3.4H61.9zm-1.053 10.813h6L70.747 13.7z" transform="translate(-46.206 -9.888)"/><path id="Pfad_2345" data-name="Pfad 2345" d="M82.1 26.983V10.3h3.581v13.8h7.689v2.986H82.1z" transform="translate(-45.13 -9.888)"/><path id="Pfad_2346" data-name="Pfad 2346" d="M105.147 13.286H96.3V10.3h13.376v2.369L100.934 24h8.742v2.986H96.3v-2.372z" transform="translate(-44.374 -9.888)"/><path id="Pfad_2347" data-name="Pfad 2347" d="M113.6 10.3h7.162c3.686 0 5.9 1.442 5.9 4.428a3.781 3.781 0 0 1-2.633 3.6c2.528.515 4 1.751 4 4.222 0 2.78-2.107 4.531-6.109 4.531h-8.32zm6.53 6.694c1.791 0 2.844-.515 2.844-1.854 0-1.442-1.053-1.854-2.844-1.854h-3.16V17.1h3.16zm1.264 7.106c1.9 0 2.844-.618 2.844-1.957 0-1.545-1.159-2.06-3.16-2.06h-4V24.1z" transform="translate(-43.453 -9.888)"/><path id="Pfad_2348" data-name="Pfad 2348" d="M134.876 19.677c0 2.678 1.369 4.325 4.213 4.325 2.949 0 4.318-1.854 4.318-4.428V10.1h3.581v9.68c0 3.913-2.738 7.312-7.794 7.312S131.4 24 131.4 19.78V10.1h3.581v9.577z" transform="translate(-42.504 -9.894)"/><path id="Pfad_2349" data-name="Pfad 2349" d="M151 10.3h7.584c3.37 0 6.846 1.339 6.846 5.458 0 2.78-2.107 4.737-4.845 5.149 1.58 1.545 3.265 3.4 5.056 3.4a3.929 3.929 0 0 0 1.9-.412l.316 2.78a7.231 7.231 0 0 1-2.844.618c-3.792 0-6.636-4.737-8.847-6.282h-1.685v6.076H151zm3.581 2.986v4.944H159a2.469 2.469 0 0 0 2.738-2.472c0-1.648-1.159-2.472-2.738-2.472h-4.424z" transform="translate(-41.46 -9.888)"/><path id="Pfad_2350" data-name="Pfad 2350" d="M185.631 17.109v7.827a13.452 13.452 0 0 1-7.268 2.266c-5.056 0-9.163-3.192-9.163-8.65s4.108-8.65 9.163-8.65A10.463 10.463 0 0 1 185 12.166l-1.685 2.678a7.421 7.421 0 0 0-4.95-1.751c-3.16 0-5.582 1.957-5.582 5.458 0 3.4 2.423 5.355 5.688 5.355a6.6 6.6 0 0 0 3.581-.927v-3.09h-4.529V16.9h8.11z" transform="translate(-40.491 -9.9)"/></g><g id="Gruppe_1128" data-name="Gruppe 1128" transform="translate(200.116 10.504)"><path id="Pfad_2351" data-name="Pfad 2351" d="M193.16 10.3h2l3.16 8.033h-1.685L196 16.685h-3.686l-.632 1.648H190zm-.527 5.149h2.844l-1.369-3.5z" transform="translate(-190 -10.197)"/><path id="Pfad_2352" data-name="Pfad 2352" d="M206.494 13.5v3.81a6.052 6.052 0 0 1-3.476 1.133 4.021 4.021 0 0 1-4.318-4.119 4.021 4.021 0 0 1 4.318-4.119 4.534 4.534 0 0 1 3.16 1.133l-.737 1.236a3.517 3.517 0 0 0-2.317-.824 2.46 2.46 0 0 0-2.633 2.575 2.491 2.491 0 0 0 2.738 2.575 4.041 4.041 0 0 0 1.685-.412V15.04h-2.107V13.6h3.686z" transform="translate(-189.537 -10.2)"/></g><g id="Gruppe_1129" data-name="Gruppe 1129" transform="translate(.074)"><path id="Pfad_2353" data-name="Pfad 2353" class="cls-2" d="M37.337 10.3h-19.17a1.024 1.024 0 0 0-.825.618L15.8 15.861a.454.454 0 0 0 .412.618h12.365a.454.454 0 0 1 .412.618L24.763 30.9a1.024 1.024 0 0 1-.825.618H11.571a1.024 1.024 0 0 0-.825.618L9.2 37.075a.454.454 0 0 0 .412.618h19.274a1.024 1.024 0 0 0 .825-.618l7.936-26.157c.309-.412.102-.618-.31-.618z" transform="translate(.205 .307)"/><path id="Pfad_2354" data-name="Pfad 2354" class="cls-2" d="M20.507 26.672l1.546-4.943a.454.454 0 0 0-.412-.618H9.273a.454.454 0 0 1-.412-.618l4.226-13.8c0-.309.309-.515.721-.515h12.368A1.024 1.024 0 0 0 27 5.561L28.546.618A.473.473 0 0 0 28.031 0H8.758a.884.884 0 0 0-.721.618L.1 26.775a.454.454 0 0 0 .412.618h19.274a1.244 1.244 0 0 0 .721-.721z" transform="translate(-.074)"/></g></g></g></svg>