<svg id="Ebene_1" xmlns="http://www.w3.org/2000/svg" width="244" height="68" viewBox="0 0 563.9 156.1"><style>.st0{fill:#63513d}</style><path class="st0" d="M57.9 71v-.2c0-12.8-8.4-18.1-23.2-22C22 45.6 18.9 44 18.9 39.2V39c0-3.6 3.2-6.4 9.4-6.4s12.5 2.7 19 7.2l8.4-12.1c-7.4-6-16.5-9.3-27.2-9.3-15 0-25.6 8.8-25.6 22.1v.2c0 14.5 9.5 18.6 24.3 22.4 12.2 3.1 14.7 5.2 14.7 9.3v.2c0 4.3-4 6.9-10.6 6.9-8.4 0-15.3-3.4-21.9-8.9L0 82c8.8 7.8 20 11.7 31.1 11.7 15.7 0 26.8-8.2 26.8-22.7m71.2 21.6h16V19.4h-17.4l-19.2 31-19.2-31H71.9v73.2h15.8V45.2l20.4 30.9h.4l20.6-31.3v47.8zm104 0l-31.4-73.7h-14.8l-31.4 73.7h16.4l5.8-14.3h-.1l6.9-17.1 9.4-22.9 7.5 18.2 2.2 5.5 5.7 14.2 6.7 16.4h17.1zm34.1-58.3h22.3V19.4h-60.6v14.8H251v58.3h16.1V34.3zm96.3 58.3l-17.9-26.1c9.3-3.5 15.7-10.9 15.7-22.7v-.2c0-6.9-2.2-12.7-6.3-16.7-4.8-4.8-12-7.4-21.3-7.4h-33.5v73.2h16.1V69.2h.1V55h-.1V34h16c7.8 0 12.7 3.6 12.7 10.5v.2c0 6.2-4.5 10.4-12.3 10.4h-3.6v14.4l15.6 23.3h18.8zm12.8 0h16.1V19.4h-16.1v73.2zm89.5-69c-5.5-3.4-12.2-5.5-21.5-5.5-22.5 0-38.2 17-38.2 37.9v.2c0 21 16 37.6 37.5 37.6 13.6 0 21.9-4.7 29.2-12.3l-9.7-10.9c-5.6 5.1-10.7 8.3-19 8.3C431.7 79 423 68.6 423 56v-.2c0-12.5 8.9-22.8 21.2-22.8 6.1 0 11 2.3 15.8 6l5.8-15.4z"/><path d="M563.9 47c0-26-21.1-47-47-47-26 0-47 21.1-47 47 0 26 21.1 47 47 47 2.1 0 4.2-.2 6.3-.4 1.1-.2 2.1-.5 3.1-.8 4.6-1.7 7.3-5 7.3-9.3v-.2c0-3.9 0-8.3-18.7-12.3-10.7-2.3-17.6-5.1-22.3-9-5.3-4.4-7.9-10.3-7.9-18v-.2c0-15 12.8-25.8 30.4-25.8 12.1 0 21.7 3.3 31 10.8l2.6 2.1-9.5 12.6-2.7-2.2c-6.8-5.6-13.7-8.2-21.6-8.2-8.3 0-14.1 4.1-14.1 9.9v.2c0 4.9 1.4 8.7 19.6 12.6 24.6 5.4 29 15.9 29.4 24.9 8.7-8.6 14.1-20.5 14.1-33.7" fill="#e1e000"/><g><path class="st0" d="M8.1 119.6h15.6v3.3H11.8v8.4h9.6v3.3h-9.6v8.6h12.5v3.3H8.1v-26.9zM29.2 127.2h3.6v2.5c0 .8-.1 1.4-.1 1.4h.1c.9-2.2 3.6-4.4 6.6-4.4 3.2 0 5.1 1.5 5.8 4.4h.1c1.1-2.3 3.7-4.4 6.8-4.4 4.3 0 6.3 2.5 6.3 7.4v12.3h-3.7v-11.5c0-2.7-.5-4.8-3.4-4.8-2.7 0-4.7 2.3-5.4 4.9-.2.8-.3 1.7-.3 2.7v8.8H42V135c0-2.5-.4-4.8-3.3-4.8-2.8 0-4.8 2.3-5.5 5.1-.2.8-.2 1.6-.2 2.5v8.8h-3.7v-19.4zM64 127.2h3.4v1.6c0 .8-.1 1.4-.1 1.4h.1s1.6-3.5 6.5-3.5c5.2 0 8.4 4.1 8.4 10.1 0 6.1-3.7 10.1-8.7 10.1-4.2 0-5.9-3.2-5.9-3.2h-.1s.1.7.1 1.7v8.6H64v-26.8zm9 16.5c3 0 5.5-2.5 5.5-6.9 0-4.2-2.2-6.9-5.4-6.9-2.9 0-5.5 2-5.5 6.9 0 3.5 1.9 6.9 5.4 6.9zM95.9 126.7c5.7 0 10.4 4.2 10.4 10 0 5.9-4.6 10.1-10.4 10.1-5.7 0-10.4-4.3-10.4-10.1s4.7-10 10.4-10zm0 17c3.6 0 6.6-2.9 6.6-6.9s-3-6.8-6.6-6.8c-3.6 0-6.6 2.8-6.6 6.8s3 6.9 6.6 6.9zM108.5 127.2h3.9l4 13.5c.3 1 .5 2.1.5 2.1h.1s.2-1.1.5-2.1l4.2-13.5h3.4l4.1 13.5c.3 1 .5 2.1.5 2.1h.1s.2-1.1.5-2.1l4-13.5h3.9l-6.2 19.2h-4.1l-4-12.3c-.3-1-.5-2.1-.5-2.1h-.1s-.2 1.1-.5 2.1l-4 12.3h-4.1l-6.2-19.2zM150.1 126.7c5.4 0 8.3 4 8.3 9 0 .5-.1 1.6-.1 1.6h-14c.2 4.2 3.2 6.3 6.6 6.3 3.3 0 5.7-2.2 5.7-2.2l1.5 2.7s-2.8 2.7-7.4 2.7c-6 0-10.2-4.4-10.2-10.1 0-6 4.1-10 9.6-10zm4.6 7.8c-.1-3.3-2.2-4.9-4.6-4.9-2.8 0-5.1 1.7-5.6 4.9h10.2zM163 127.2h3.6v3.3c0 .8-.1 1.4-.1 1.4h.1c.9-2.8 3.1-5 6.1-5 .5 0 .9.1.9.1v3.6s-.5-.1-1.1-.1c-2.4 0-4.5 1.7-5.4 4.5-.3 1.1-.5 2.3-.5 3.5v7.9H163v-19.2zM177.4 119.6h3.7v3.8h-3.7v-3.8zm0 7.6h3.7v19.2h-3.7v-19.2zM187 127.2h3.6v2.5c0 .8-.1 1.4-.1 1.4h.1c.8-1.7 3-4.4 7.2-4.4 4.5 0 6.6 2.5 6.6 7.4v12.3h-3.7v-11.5c0-2.7-.6-4.8-3.6-4.8-2.9 0-5.3 1.9-6.1 4.7-.2.8-.3 1.6-.3 2.6v9H187v-19.2zM217 151.2c3.3 0 6.1-1.5 6.1-5.4v-1.4-1.2h-.1c-1.1 1.9-2.9 3-5.7 3-5.4 0-8.6-4.3-8.6-9.8 0-5.5 3.1-9.6 8.4-9.6 4.6 0 6 2.8 6 2.8h.1v-2.4h3.5v18.4c0 6.3-4.8 8.8-9.7 8.8-2.3 0-4.7-.6-6.6-1.6l1.2-2.9c.1 0 2.5 1.3 5.4 1.3zm6.1-14.8c0-5-2.4-6.5-5.4-6.5-3.3 0-5.2 2.4-5.2 6.3 0 4 2.1 6.7 5.6 6.7 2.6.1 5-1.5 5-6.5zM243.3 119.6h3.7l11.9 17.4c1 1.4 2.2 3.9 2.2 3.9h.1s-.3-2.4-.3-3.9v-17.4h3.8v26.8H261L249 129c-1-1.5-2.2-3.9-2.2-3.9h-.1s.3 2.4.3 3.9v17.4h-3.8v-26.8zM279.7 126.7c5.4 0 8.3 4 8.3 9 0 .5-.1 1.6-.1 1.6h-14c.2 4.2 3.2 6.3 6.6 6.3 3.3 0 5.7-2.2 5.7-2.2l1.5 2.7s-2.8 2.7-7.4 2.7c-6 0-10.2-4.4-10.2-10.1 0-6 4.1-10 9.6-10zm4.5 7.8c-.1-3.3-2.2-4.9-4.6-4.9-2.8 0-5.1 1.7-5.6 4.9h10.2zM290.4 127.2h3.9l4 13.5c.3 1 .5 2.1.5 2.1h.1s.2-1.1.5-2.1l4.2-13.5h3.4l4.1 13.5c.3 1 .5 2.1.5 2.1h.1s.2-1.1.5-2.1l4-13.5h3.9l-6.2 19.2h-4.1l-4-12.3c-.3-1-.5-2.1-.5-2.1h-.1s-.2 1.1-.5 2.1l-4 12.3h-4.1l-6.2-19.2zM335.6 119.6h4l6.2 14.5c.6 1.5 1.3 3.6 1.3 3.6h.1s.7-2.1 1.3-3.6l6.2-14.5h4l2.2 26.8H357l-1.3-16.9c-.1-1.6 0-4 0-4h-.1s-.8 2.5-1.4 4l-5.4 12.1h-3.3l-5.3-12.1c-.6-1.4-1.4-4-1.4-4h-.1s0 2.4-.1 4l-1.3 16.9h-3.8l2.1-26.8zM375.5 126.7c5.7 0 10.4 4.2 10.4 10 0 5.9-4.6 10.1-10.4 10.1s-10.4-4.3-10.4-10.1 4.7-10 10.4-10zm0 17c3.6 0 6.6-2.9 6.6-6.9s-3-6.8-6.6-6.8c-3.6 0-6.6 2.8-6.6 6.8s3 6.9 6.6 6.9zM390.4 119.6h3.7v8.8c0 .9-.1 1.6-.1 1.6h.1s1.6-3.3 6.2-3.3c5.2 0 8.4 4.1 8.4 10.1 0 6.1-3.7 10.1-8.7 10.1-4.3 0-6-3.3-6-3.3h-.1s.1.6.1 1.4v1.4h-3.5v-26.8zm9 24.1c3 0 5.5-2.5 5.5-6.9 0-4.2-2.2-6.9-5.4-6.9-2.9 0-5.5 2-5.5 6.9 0 3.5 1.7 6.9 5.4 6.9zM413.3 119.6h3.7v3.8h-3.7v-3.8zm0 7.6h3.7v19.2h-3.7v-19.2zM422.6 119.6h3.7v20.9c0 2.3.9 2.7 2.1 2.7h.6v3.3s-.6.1-1.2.1c-2.1 0-5.2-.6-5.2-5.4v-21.6zM433 119.6h3.7v3.8H433v-3.8zm.1 7.6h3.7v19.2h-3.7v-19.2zM443.4 130.4h-2.5v-3h2.6v-5.5h3.6v5.5h4.6v3h-4.6v8.5c0 3.8 2.7 4.3 4.1 4.3.5 0 .9-.1.9-.1v3.3s-.5.1-1.3.1c-2.5 0-7.4-.8-7.4-7.2v-8.9zM454.9 150.4s1.1.8 2.2.8c1.5 0 2.7-1.1 3.5-2.8l1-2.2-8.1-19h4.1l4.8 12.6c.4 1 .7 2.3.7 2.3h.1s.3-1.3.6-2.3l4.7-12.6h4l-9 22.7c-1.2 3-3.5 4.5-6.2 4.5-2.2 0-3.7-1.2-3.7-1.2l1.3-2.8z"/></g></svg>